<svg width="91" height="64" viewBox="0 0 91 64" fill="none" xmlns="http://www.w3.org/2000/svg">
<path fill-rule="evenodd" clip-rule="evenodd" d="M1.88232 0H56.8823C66.7057 0 76.8823 8.13958 76.8823 19C76.8823 27.3693 70.8387 34.1229 63.5706 36.7807L90.4192 64H80.2297L46.8823 30H56.8823C63.059 30 68.8823 24.7081 68.8823 19C68.8823 13.2919 63.059 8 56.8823 8H9.33995L1.88232 0ZM56.535 15.0588H11.6086L19.0192 22.5882H42.6241L1.14441e-05 64H10.1895L33.6441 41.2125L56.0718 64H66.2613L39.3121 35.7057L52.8135 22.5882H52.8294C53.6744 23.7313 55.0197 24.4706 56.535 24.4706C59.093 24.4706 61.1666 22.3637 61.1666 19.7647C61.1666 17.1657 59.093 15.0588 56.535 15.0588H56.535Z" fill="#9BFE03"/>
</svg>
